<?xml version="1.0" standalone="no"?><!DOCTYPE svg PUBLIC "-//W3C//DTD SVG 1.1//EN" "http://www.w3.org/Graphics/SVG/1.1/DTD/svg11.dtd"><svg t="1711546422905" class="icon" viewBox="0 0 1024 1024" version="1.1" xmlns="http://www.w3.org/2000/svg" p-id="873" xmlns:xlink="http://www.w3.org/1999/xlink" width="32" height="32"><path d="M732.4342455 185.87211435c-12.59955791-8.49833789-29.64120293-5.17419229-38.12155399 7.38129552-8.4803502 12.56448164-5.18318614 29.63220908 7.3812955 38.121554 93.48891416 63.1515832 149.29517813 168.10592432 149.29517812 280.76264297 0 186.69272256-151.87732734 338.5700499-338.5700499 338.5700499S173.84906622 698.8303294 173.84906622 512.13760683c0-112.65671865 55.80536396-217.61105977 149.29517811-280.76264296 12.56448164-8.48934404 15.8616457-25.55707237 7.38129551-38.121554-8.48934404-12.55548779-25.56606621-15.87963339-38.121554-7.38129552C183.79452325 259.25516123 118.94579053 381.22416583 118.94579053 512.13760683c0 216.95900185 176.51432285 393.47332471 393.4733247 393.47332471S905.89244082 729.09660869 905.89244082 512.13760683C905.89244082 381.22416583 841.04280898 259.25516123 732.4342455 185.87211435z" p-id="874"></path><path d="M414.44404297 118.66428125c-15.16461855 0-27.4520874 12.28746885-27.4520874 27.45118828l0 26.78114268c0 15.16461855 12.28746885 27.4520874 27.4520874 27.4520874s27.4520874-12.28746885 27.4520874-27.4520874L441.89613037 146.11546953C441.89523125 130.95085097 429.60866153 118.66428125 414.44404297 118.66428125z" p-id="875"></path><path d="M610.39418838 118.66428125c-15.16461855 0-27.45118828 12.28746885-27.45118828 27.45118828l0 26.78114268c0 15.16461855 12.28746885 27.4520874 27.45118828 27.4520874s27.4520874-12.28746885 27.4520874-27.4520874L637.84627666 146.11546953C637.84537666 130.95085097 625.55880693 118.66428125 610.39418838 118.66428125z" p-id="876"></path><path d="M436.42513935 261.9452375c9.85641768 15.8616457 36.88848984 42.70574531 75.7241587 42.70574531 38.63960244 0 66.01074434-26.6471332 76.09110996-42.38376416 8.1053042-12.65352099 4.42320117-29.31922177-8.12329278-37.58551699-12.57257549-8.26629521-29.52518203-4.7451832-37.93358144 7.70327754-0.1160209 0.16998487-11.96548769 17.36272793-30.03423662 17.36272793-17.56868818 0-28.49717901-15.90661494-29.23917627-17.0236582-8.05134112-12.68050253-24.84205752-16.52269746-37.64757481-8.58737813C432.38597803 232.14304268 428.42686221 249.06776768 436.42513935 261.9452375z" p-id="877"></path><path d="M510.92882598 356.57817558c-15.16461855 0-27.45118828 12.28746885-27.45118828 27.45118829l-1e-8 183.01061865c0 0.55762207 0.13131123 1.07926787 0.16458838 1.6287961 0.05935957 0.98033555 0.13041123 1.94897901 0.29320137 2.91312509 0.14839981 0.88679883 0.36605215 1.73852138 0.59719483 2.59384131 0.22754531 0.83913135 0.46498448 1.6656706 0.76987792 2.47961865 0.32378028 0.86251552 0.70422276 1.6845583 1.10984766 2.50300284 0.37954248 0.77077705 0.77347529 1.52446641 1.22496944 2.25836894 0.46768271 0.7563876 0.98033555 1.46780508 1.51817079 2.17292695 0.53693614 0.70782012 1.08556435 1.39585342 1.69355215 2.05330781 0.60528955 0.65295703 1.25195098 1.24835362 1.9175001 1.84015196 0.65205791 0.57920713 1.30501494 1.14582305 2.02003066 1.66746973 0.79056387 0.57830801 1.62609785 1.07477138 2.47782042 1.5676374 0.47847568 0.27611279 0.88679883 0.62777461 1.38685957 0.87780497l183.01061865 91.50575889c3.94112813 1.9660667 8.13228662 2.90413125 12.2604873 2.90413126 10.06237793 0 19.75780459-5.5672251 24.57403857-15.18260625 6.77330771-13.56460312 1.27803339-30.05222432-12.278475-36.83452588l-167.83700624-83.91850313L538.38091338 384.02936387C538.38091338 368.86474531 526.09344453 356.57817558 510.92882598 356.57817558z" p-id="878"></path></svg>