<?xml version="1.0" standalone="no"?><!DOCTYPE svg PUBLIC "-//W3C//DTD SVG 1.1//EN" "http://www.w3.org/Graphics/SVG/1.1/DTD/svg11.dtd"><svg t="1711793423706" class="icon" viewBox="0 0 1024 1024" version="1.1" xmlns="http://www.w3.org/2000/svg" p-id="6887" xmlns:xlink="http://www.w3.org/1999/xlink" width="32" height="32"><path d="M426.666667 128h170.666666a341.333333 341.333333 0 1 1 0 682.666667v149.333333c-213.333333-85.333333-512-213.333333-512-490.666667a341.333333 341.333333 0 0 1 341.333334-341.333333z m85.333333 597.333333h85.333333a256 256 0 0 0 0-512h-170.666666a256 256 0 0 0-256 256c0 154.026667 105.045333 254.549333 341.333333 361.813334V725.333333z" p-id="6888"></path><path d="M362.666667 427.349333h298.666666v85.333334h-298.666666v-85.333334z" p-id="6889"></path><path d="M469.333333 619.349333v-298.666666h85.333334v298.666666h-85.333334z" p-id="6890"></path></svg>