<?xml version="1.0" standalone="no"?><!DOCTYPE svg PUBLIC "-//W3C//DTD SVG 1.1//EN" "http://www.w3.org/Graphics/SVG/1.1/DTD/svg11.dtd"><svg t="1710675461664" class="icon" viewBox="0 0 1024 1024" version="1.1" xmlns="http://www.w3.org/2000/svg" p-id="1321" xmlns:xlink="http://www.w3.org/1999/xlink" width="32" height="32"><path d="M119.65625 512c0 58.30915155 27.57254453 89.04575857 82.86830393 92.05915155V419.94084845c-55.29575858 3.01339297-82.86830393 33.75-82.86830393 92.05915155zM812.13392893 96.453125h-507.75669691c-61.62388357 0-92.36049143 30.73660702-92.3604906 92.36049143h-0.15067034v184.72098202h0.15067035v46.10491013h-0.15067035v184.72098285h0.15067035v46.10491012h-0.15067035v184.72098203h0.15067035c0 61.62388357 30.73660702 92.36049143 92.3604906 92.36049142h507.7566969c61.62388357 0 92.36049143-30.73660702 92.3604906-92.36049142v-646.37276715c-0.15066952-61.47321405-30.88727655-92.36049143-92.36049061-92.36049143zM327.27901797 281.17410703c0-30.73660702 15.36830392-46.10491095 46.10491095-46.10491095H465.74441952c30.73660702 0 46.10491095 15.36830392 46.10491095 46.10491095 0 30.73660702-15.36830392 46.10491095-46.10491095 46.10491095H373.38392893c-30.5859375 0-46.10491095-15.36830392-46.10491095-46.10491095z m207.47209845 504.89397345c-0.30133905 1.95870548-1.50669608 3.61607107-3.31473285 4.21875l-94.16852655 35.859375c-3.31473203 1.20535702-7.08147344 0.75334845-9.94419607-1.35602655-2.86272345-2.109375-4.52008905-5.42410703-4.36941953-9.04017893l0.45200858-7.83482107 4.67075857-92.8125c0.15066952-1.95870548 1.20535702-3.61607107 3.01339298-4.52008988 1.80803595-0.90401797 3.76674142-0.60267892 5.42410702 0.4520094l3.6160719 2.56138358 92.66183048 67.34933047c1.50669608 1.35602656 2.26004453 3.1640625 1.95870547 5.12276798z m239.71540155-321.0770094L556.14620548 765.42633905 444.19866095 683.9140625l218.32031249-300.43526797 111.94754453 81.51227654z m31.1886156-43.09151715l-15.66964215 21.6964281-112.09821487-81.36160703 15.66964297-21.69642892c8.28683048-11.30022345 20.64174142-18.984375 34.50334845-21.09375 13.86160702-2.26004453 28.02455392 1.20535702 39.32477655 9.4921875l26.66852655 19.28571487c23.50446406 17.02566953 28.77790155 50.02232108 11.6015625 73.67745548zM119.65625 742.82589297c0 58.30915155 27.57254453 89.04575857 82.86830393 92.05915155V650.76674143c-55.29575858 3.01339297-82.86830393 33.75-82.86830393 92.05915155zM119.65625 281.17410703c0 58.30915155 27.57254453 89.04575857 82.86830393 92.05915155V189.11495547c-55.29575858 3.01339297-82.86830393 33.75-82.86830393 92.05915155z" p-id="1322"></path></svg>