<?xml version="1.0" standalone="no"?><!DOCTYPE svg PUBLIC "-//W3C//DTD SVG 1.1//EN" "http://www.w3.org/Graphics/SVG/1.1/DTD/svg11.dtd"><svg t="1710661940889" class="icon" viewBox="0 0 1024 1024" version="1.1" xmlns="http://www.w3.org/2000/svg" p-id="4270" width="128" height="128" xmlns:xlink="http://www.w3.org/1999/xlink"><path d="M76.875 298.15l-9.893 158.274h890.296V308.042z" fill="#F7D97E" p-id="4271"></path><path d="M912.724 288.547h-165.24c17.205-20.876 36.642-54.677 41.019-86.653 8.153-59.595-0.841-103.414-27.444-133.979C735.524 38.567 694.42 23.7 638.872 23.7c-58.529 0-101.789 22.673-126.877 64.26-25.089-41.587-68.357-64.26-126.878-64.26-55.538 0-96.643 14.867-122.174 44.215-26.605 30.556-35.589 74.394-27.445 133.979 4.365 31.976 32.072 65.776 49.286 86.653h-173.52c-43.586 0-66.095 22.517-66.095 66.202v91.039c0 28.43 16.307 49.664 49.577 49.664v438.636c0 43.684 30.768 66.211 74.365 66.211h685.775c43.599 0 74.364-30.797 74.364-74.49V495.452c36.651 0 49.578-14.964 49.578-49.664V354.75c0.002-70.183-66.104-66.203-66.104-66.203z m-380.066-99.318c0-39.877 18.896-115.489 106.214-115.489 40.468 0 68.918 9.11 84.559 27.068 16.336 18.761 21.581 50.495 15.591 94.304-9.766 71.448-58.484 85.155-98.95 85.155-111.731 0.001-107.414-0.413-107.414-91.038z m-232.089-88.42c15.64-17.958 44.09-27.068 84.547-27.068 106.37 0 97.965 88.527 97.965 115.489 0 92.594-5.604 91.039-90.885 91.039-40.485 0-97.453-13.698-107.22-85.155-5.988-43.811-0.743-75.555 15.593-94.305z m587.376 833.279c0 16.104-17.271 24.4-33.329 24.4H169.392c-16.065 0-33.337-16.576-33.337-32.68V495.452h751.891v438.636z m49.567-480.021H86.487V354.75c0-16.094 8.724-24.828 24.778-24.828h801.459c16.075 0 24.788 8.733 24.788 24.828v99.317zM342.621 884.434h8.26c6.423 0 16.529-10.191 16.529-16.559V743.73h173.508v124.145c0 6.367 8.82 16.559 15.156 16.559h14.693c6.337 0 11.467-10.191 11.467-16.559V578.211c0-6.365-10.191-16.559-16.529-16.559h-8.258c-6.348 0-16.529 10.193-16.529 16.559v124.145H367.41V578.211c0-6.365-10.105-16.559-16.529-16.559h-8.26c-6.415 0-16.529 10.193-16.529 16.559v289.664c-0.001 6.367 10.114 16.559 16.529 16.559z m330.497-248.289h8.26c6.85 0 16.529-10.182 16.529-16.547v-41.387c-0.068-6.365-2.326-16.297-16.529-16.559-6.451-0.115-8.26 0-8.26 0-6.849 0-16.528 10.193-16.528 16.559v41.387c0 6.365 9.68 16.547 16.528 16.547z m0 248.289h8.26c6.85 0 16.529-10.191 16.529-16.559V669.25c0-6.365-9.68-16.559-16.529-16.559h-8.26c-6.849 0-16.528 10.193-16.528 16.559v198.625c0 6.367 9.68 16.559 16.528 16.559z" fill="#E9472F" p-id="4272"></path></svg>