<?xml version="1.0" standalone="no"?><!DOCTYPE svg PUBLIC "-//W3C//DTD SVG 1.1//EN" "http://www.w3.org/Graphics/SVG/1.1/DTD/svg11.dtd"><svg t="1710675456030" class="icon" viewBox="0 0 1024 1024" version="1.1" xmlns="http://www.w3.org/2000/svg" p-id="1182" xmlns:xlink="http://www.w3.org/1999/xlink" width="32" height="32"><path d="M207.59364057 89.46270815h609.71302709c80.48368821 0 145.74636803 73.45520844 145.74636803 164.03974726v446.89394311c0 90.58315798-65.26267982 164.03836642-145.74636803 164.03836643H512.44877327l-237.51842998 148.23602403c-7.76446795 4.84675129-17.98545171 2.47999013-22.83082215-5.28309698a16.57008987 16.57008987 0 0 1-0.96244609-15.77196389L310.39723984 864.43476495h-102.80359927c-80.48506905 0-145.74774887-73.45520844-145.74774887-164.03836643v-446.89532394C61.8458917 162.84749369 127.1085715 89.46270815 207.59364057 89.46270815zM248.25940281 545.14017975c34.31803697 0 62.13783703-27.81980006 62.13783703-62.13783703s-27.81980006-62.13783703-62.13783703-62.13783703-62.13783703 27.81980006-62.13783705 62.13783703 27.81980006 62.13783703 62.13783705 62.13783703z m248.55134814 0c34.31803697 0 62.13783703-27.81980006 62.13783704-62.13783703s-27.81980006-62.13783703-62.13783704-62.13783703-62.13783703 27.81980006-62.13783703 62.13783703 27.81980006 62.13783703 62.13783703 62.13783703z m248.55134814 0c34.31803697 0 62.13783703-27.81980006 62.13783705-62.13783703s-27.81980006-62.13783703-62.13783705-62.13783703-62.13783703 27.81980006-62.13783702 62.13783703 27.81980006 62.13783703 62.13783702 62.13783703z" p-id="1183"></path></svg>